<?xml version="1.0" standalone="no"?>
<!DOCTYPE svg PUBLIC "-//W3C//DTD SVG 20010904//EN"
 "http://www.w3.org/TR/2001/REC-SVG-20010904/DTD/svg10.dtd">
<svg version="1.0" xmlns="http://www.w3.org/2000/svg"
 width="192.000000pt" height="192.000000pt" viewBox="0 0 192.000000 192.000000"
 preserveAspectRatio="xMidYMid meet">
<metadata>
Created by potrace 1.11, written by Peter Selinger 2001-2013
</metadata>
<g transform="translate(0.000000,192.000000) scale(0.100000,-0.100000)"
fill="#000000" stroke="none">
<path d="M848 1914 c-2 -1 -21 -5 -43 -9 -22 -4 -44 -8 -50 -9 -5 -2 -23 -6
-40 -10 -87 -22 -265 -102 -265 -118 0 -5 -5 -8 -11 -8 -17 0 -131 -94 -184
-152 -27 -29 -72 -89 -100 -133 -173 -267 -200 -612 -69 -903 13 -29 24 -57
24 -62 0 -6 4 -10 9 -10 5 0 13 -10 17 -22 3 -12 11 -26 15 -32 5 -6 26 -33
47 -61 39 -53 170 -185 183 -185 4 0 14 -6 21 -13 28 -27 133 -85 208 -115
348 -137 749 -57 1016 204 104 101 163 188 228 334 51 115 79 355 56 485 -17
98 -20 111 -39 165 -75 216 -203 383 -386 502 -103 67 -247 125 -360 144 -31
5 -273 13 -277 8z"/>
</g>
</svg>
